<?xml version="1.0" encoding="UTF-8" standalone="no" ?>
<!DOCTYPE svg PUBLIC "-//W3C//DTD SVG 1.1//EN" "http://www.w3.org/Graphics/SVG/1.1/DTD/svg11.dtd">
<svg xmlns="http://www.w3.org/2000/svg" xmlns:xlink="http://www.w3.org/1999/xlink" version="1.1" width="640" height="480" viewBox="0 0 640 480" xml:space="preserve">
<desc>Created with Fabric.js 3.6.6</desc>
<defs>
</defs>
<g transform="matrix(1.64 0 0 1.64 322.58 249.91)"  >
<g style=""   >
		<g transform="matrix(1 0 0 1 43.4 -46.6)" id="Warstwa_1"  >
<radialGradient id="SVGID_SVGID_1__5" gradientUnits="userSpaceOnUse" gradientTransform="matrix(-1 0 0 1 3849.04 0)"  cx="3491.3503" cy="313.5493" r="123.3895" fx="3491.3503" fy="313.5493">
<stop offset="0%" style="stop-color:rgb(22,119,255);stop-opacity: 1"/>
<stop offset="100%" style="stop-color:rgb(0,12,119);stop-opacity: 1"/>
</radialGradient>
<path style="stroke: none; stroke-width: 1; stroke-dasharray: none; stroke-linecap: butt; stroke-dashoffset: 0; stroke-linejoin: miter; stroke-miterlimit: 4; fill: url(#SVGID_SVGID_1__5); fill-rule: nonzero; opacity: 1;"  transform=" translate(-341.05, -374.35)" d="M 357.3 314.9 v 118.9 h -32.5 v -86.4 C 324.8 329.4 339.4 314.9 357.3 314.9 z" stroke-linecap="round" />
</g>
		<g transform="matrix(1 0 0 1 0.5 -34.7)" id="Warstwa_1"  >
<radialGradient id="SVGID_SVGID_00000050652980521829629320000011099975833794573449__6" gradientUnits="userSpaceOnUse" gradientTransform="matrix(-1 0 0 1 3849.04 0)"  cx="3534.2878" cy="337.6277" r="100.6018" fx="3534.2878" fy="337.6277">
<stop offset="0%" style="stop-color:rgb(22,119,255);stop-opacity: 1"/>
<stop offset="100%" style="stop-color:rgb(0,12,119);stop-opacity: 1"/>
</radialGradient>
<path style="stroke: none; stroke-width: 1; stroke-dasharray: none; stroke-linecap: butt; stroke-dashoffset: 0; stroke-linejoin: miter; stroke-miterlimit: 4; fill: url(#SVGID_SVGID_00000050652980521829629320000011099975833794573449__6); fill-rule: nonzero; opacity: 1;"  transform=" translate(-298.15, -386.25)" d="M 314.4 338.7 v 95.1 h -32.5 v -62.6 C 281.9 353.3 296.4 338.7 314.4 338.7 z" stroke-linecap="round" />
</g>
		<g transform="matrix(1 0 0 1 -42.5 -25.3)" id="Warstwa_1"  >
<radialGradient id="SVGID_SVGID_00000069363470347905010890000007733878750976120233__7" gradientUnits="userSpaceOnUse" gradientTransform="matrix(-1 0 0 1 3849.04 0)"  cx="3577.2253" cy="356.5033" r="83.1466" fx="3577.2253" fy="356.5033">
<stop offset="0%" style="stop-color:rgb(22,119,255);stop-opacity: 1"/>
<stop offset="100%" style="stop-color:rgb(0,12,119);stop-opacity: 1"/>
</radialGradient>
<path style="stroke: none; stroke-width: 1; stroke-dasharray: none; stroke-linecap: butt; stroke-dashoffset: 0; stroke-linejoin: miter; stroke-miterlimit: 4; fill: url(#SVGID_SVGID_00000069363470347905010890000007733878750976120233__7); fill-rule: nonzero; opacity: 1;"  transform=" translate(-255.15, -395.65)" d="M 271.4 357.4 L 271.4 357.4 v 76.5 h -32.5 v -43.9 C 238.9 371.9 253.5 357.4 271.4 357.4 z" stroke-linecap="round" />
</g>
		<g transform="matrix(1 0 0 1 -168.55 49.25)" id="Warstwa_1"  >
<path style="stroke: none; stroke-width: 1; stroke-dasharray: none; stroke-linecap: butt; stroke-dashoffset: 0; stroke-linejoin: miter; stroke-miterlimit: 4; fill: rgb(0,0,0); fill-rule: nonzero; opacity: 1;"  transform=" translate(-129.1, -470.2)" d="M 119.4 484.6 H 116 v -1.7 v -25.4 v -1.7 h 2.8 l 0.4 1 l 9.9 22 l 9.9 -22 l 0.4 -1 h 2.8 v 1.7 l 0 25.4 v 1.7 h -3.4 v -1.7 l 0 -17.6 l -8.2 18.2 l -0.4 1 H 128 l -0.4 -1 l -8.2 -18.2 v 17.6 V 484.6 z" stroke-linecap="round" />
</g>
		<g transform="matrix(1 0 0 1 -135.45 49.25)" id="Warstwa_1"  >
<path style="stroke: none; stroke-width: 1; stroke-dasharray: none; stroke-linecap: butt; stroke-dashoffset: 0; stroke-linejoin: miter; stroke-miterlimit: 4; fill: rgb(0,0,0); fill-rule: nonzero; opacity: 1;"  transform=" translate(-162.2, -470.2)" d="M 152.3 484.6 h -3.7 l 1 -2.4 l 11 -25.4 l 0.5 -1 h 2.2 l 0.5 1 l 11 25.4 l 1 2.4 h -3.7 l -0.5 -1 l -9.5 -21.8 l -9.5 21.8 L 152.3 484.6 z" stroke-linecap="round" />
</g>
		<g transform="matrix(1 0 0 1 -104.95 49.2)" id="Warstwa_1"  >
<path style="stroke: none; stroke-width: 1; stroke-dasharray: none; stroke-linecap: butt; stroke-dashoffset: 0; stroke-linejoin: miter; stroke-miterlimit: 4; fill: rgb(0,0,0); fill-rule: nonzero; opacity: 1;"  transform=" translate(-192.7, -470.15)" d="M 185.5 484.6 h -3.4 v -1.7 v -25.4 v -1.7 h 2.6 l 0.5 0.7 l 14.7 21 l 0 -20.1 v -1.7 h 3.4 v 1.7 l 0 25.4 v 1.7 h -2.6 l -0.5 -0.7 l -14.7 -21 v 20.1 V 484.6 z" stroke-linecap="round" />
</g>
		<g transform="matrix(1 0 0 1 -74.35 49.35)" id="Warstwa_1"  >
<path style="stroke: none; stroke-width: 1; stroke-dasharray: none; stroke-linecap: butt; stroke-dashoffset: 0; stroke-linejoin: miter; stroke-miterlimit: 4; fill: rgb(0,0,0); fill-rule: nonzero; opacity: 1;"  transform=" translate(-223.3, -470.3)" d="M 213.1 455.8 h 3.4 l 0 1.7 l 0 17.5 c 0 1.4 0.5 2.6 1.4 3.8 c 1.4 1.6 3.2 2.5 5.4 2.5 c 1.5 0 2.9 -0.4 4.2 -1.3 c 1.8 -1.2 2.6 -2.9 2.6 -4.9 v -17.5 l 0 -1.7 h 3.4 l 0 1.7 l 0 17.5 c 0 2.4 -0.8 4.5 -2.5 6.4 c -2 2.2 -4.6 3.3 -7.6 3.3 c -2.7 0 -5 -0.9 -7 -2.6 c -2.1 -1.9 -3.2 -4.2 -3.2 -7 v -17.5 L 213.1 455.8 z" stroke-linecap="round" />
</g>
		<g transform="matrix(1 0 0 1 -45.55 49.15)" id="Warstwa_1"  >
<path style="stroke: none; stroke-width: 1; stroke-dasharray: none; stroke-linecap: butt; stroke-dashoffset: 0; stroke-linejoin: miter; stroke-miterlimit: 4; fill: rgb(0,0,0); fill-rule: nonzero; opacity: 1;"  transform=" translate(-252.1, -470.1)" d="M 261 455.7 v 3.4 h -1.7 h -12.7 v 9.3 h 8.7 h 1.7 v 3.4 h -1.7 h -8.7 v 11 v 1.7 h -3.4 v -1.7 v -11 v -3.4 v -11 v -1.7 h 1.7 h 14.4 H 261 z" stroke-linecap="round" />
</g>
		<g transform="matrix(1 0 0 1 -20.15 49.25)" id="Warstwa_1"  >
<path style="stroke: none; stroke-width: 1; stroke-dasharray: none; stroke-linecap: butt; stroke-dashoffset: 0; stroke-linejoin: miter; stroke-miterlimit: 4; fill: rgb(0,0,0); fill-rule: nonzero; opacity: 1;"  transform=" translate(-277.5, -470.2)" d="M 267.6 484.6 h -3.7 l 1 -2.4 l 11 -25.4 l 0.5 -1 h 2.2 l 0.5 1 l 11 25.4 l 1 2.4 h -3.7 l -0.5 -1 l -9.5 -21.8 l -9.5 21.8 L 267.6 484.6 z" stroke-linecap="round" />
</g>
		<g transform="matrix(1 0 0 1 9.05 49.25)" id="Warstwa_1"  >
<path style="stroke: none; stroke-width: 1; stroke-dasharray: none; stroke-linecap: butt; stroke-dashoffset: 0; stroke-linejoin: miter; stroke-miterlimit: 4; fill: rgb(0,0,0); fill-rule: nonzero; opacity: 1;"  transform=" translate(-306.7, -470.2)" d="M 318.5 478.5 c -0.6 1 -1.4 2 -2.5 2.9 c -2.5 2.1 -5.3 3.2 -8.4 3.2 c -3.4 0 -6.3 -1.4 -8.8 -4 c -2.6 -2.8 -3.9 -6.3 -3.9 -10.4 c 0 -4.1 1.3 -7.6 3.9 -10.4 c 2.4 -2.7 5.3 -4 8.7 -4 c 1.9 0 3.8 0.5 5.6 1.4 c 2.4 1.2 4.2 2.9 5.2 4.8 l -3.1 1.5 c -0.3 -0.7 -0.9 -1.3 -1.6 -2 c -1.8 -1.6 -3.9 -2.4 -6.2 -2.4 c -2.4 0 -4.5 1 -6.2 2.8 c -2 2.2 -3.1 4.9 -3.1 8.2 c 0 2.8 0.8 5.3 2.4 7.4 c 1.8 2.4 4.1 3.6 6.9 3.6 c 1.2 0 2.3 -0.2 3.5 -0.7 c 2 -0.8 3.5 -2.1 4.4 -3.7 L 318.5 478.5 z" stroke-linecap="round" />
</g>
		<g transform="matrix(1 0 0 1 36.7 49.15)" id="Warstwa_1"  >
<path style="stroke: none; stroke-width: 1; stroke-dasharray: none; stroke-linecap: butt; stroke-dashoffset: 0; stroke-linejoin: miter; stroke-miterlimit: 4; fill: rgb(0,0,0); fill-rule: nonzero; opacity: 1;"  transform=" translate(-334.35, -470.1)" d="M 343.7 455.7 h 1.7 v 3.4 h -1.7 h -7.6 v 23.7 v 1.7 h -3.4 v -1.7 v -23.7 H 325 h -1.7 v -3.4 h 1.7 h 7.7 h 3.4 H 343.7 z" stroke-linecap="round" />
</g>
		<g transform="matrix(1 0 0 1 64.35 49.35)" id="Warstwa_1"  >
<path style="stroke: none; stroke-width: 1; stroke-dasharray: none; stroke-linecap: butt; stroke-dashoffset: 0; stroke-linejoin: miter; stroke-miterlimit: 4; fill: rgb(0,0,0); fill-rule: nonzero; opacity: 1;"  transform=" translate(-362, -470.3)" d="M 351.8 455.8 h 3.4 l 0 1.7 l 0 17.5 c 0 1.4 0.5 2.6 1.4 3.8 c 1.4 1.6 3.2 2.5 5.4 2.5 c 1.5 0 2.9 -0.4 4.2 -1.3 c 1.8 -1.2 2.6 -2.9 2.6 -4.9 v -17.5 l 0 -1.7 h 3.4 l 0 1.7 l 0 17.5 c 0 2.4 -0.8 4.5 -2.5 6.4 c -2 2.2 -4.6 3.3 -7.6 3.3 c -2.7 0 -5 -0.9 -7 -2.6 c -2.1 -1.9 -3.2 -4.2 -3.2 -7 v -17.5 L 351.8 455.8 z" stroke-linecap="round" />
</g>
		<g transform="matrix(1 0 0 1 95.2 49.25)" id="Warstwa_1"  >
<path style="stroke: none; stroke-width: 1; stroke-dasharray: none; stroke-linecap: butt; stroke-dashoffset: 0; stroke-linejoin: miter; stroke-miterlimit: 4; fill: rgb(0,0,0); fill-rule: nonzero; opacity: 1;"  transform=" translate(-392.85, -470.2)" d="M 403 482.4 l 0.7 2.2 h -3.6 l -0.3 -1.2 c -0.9 -3.1 -1.8 -5.4 -2.5 -7.1 c -0.9 -1.9 -2 -3.4 -3.4 -4.4 h -8.5 v 11 v 1.7 h -3.4 v -1.7 v -11 v -1.7 l 0 -12.7 v -1.7 h 1.7 l 10.7 0 c 2.2 0 4.1 0.7 5.8 2 c 2 1.6 3 3.6 3 6.1 c 0 0.9 -0.2 1.8 -0.5 2.7 c -0.8 2.1 -2.3 3.7 -4.5 4.6 C 399.7 473 401.3 476.8 403 482.4 z M 389 468.5 h 5.4 c 1 0 2 -0.3 2.9 -0.8 c 1.6 -0.9 2.4 -2.2 2.4 -3.9 c 0 -1 -0.3 -1.9 -0.9 -2.7 c -1 -1.4 -2.5 -2 -4.4 -2 h -9.1 v 9.4 L 389 468.5 L 389 468.5 z" stroke-linecap="round" />
</g>
		<g transform="matrix(1 0 0 1 115.45 49.15)" id="Warstwa_1"  >
<path style="stroke: none; stroke-width: 1; stroke-dasharray: none; stroke-linecap: butt; stroke-dashoffset: 0; stroke-linejoin: miter; stroke-miterlimit: 4; fill: rgb(0,0,0); fill-rule: nonzero; opacity: 1;"  transform=" translate(-413.1, -470.1)" d="M 411.4 455.7 h 3.4 v 1.7 v 25.4 v 1.7 h -3.4 v -1.7 v -25.4 V 455.7 z" stroke-linecap="round" />
</g>
		<g transform="matrix(1 0 0 1 137.25 49.2)" id="Warstwa_1"  >
<path style="stroke: none; stroke-width: 1; stroke-dasharray: none; stroke-linecap: butt; stroke-dashoffset: 0; stroke-linejoin: miter; stroke-miterlimit: 4; fill: rgb(0,0,0); fill-rule: nonzero; opacity: 1;"  transform=" translate(-434.9, -470.15)" d="M 427.7 484.6 h -3.4 v -1.7 v -25.4 v -1.7 h 2.6 l 0.5 0.7 l 14.7 21 l 0 -20.1 v -1.7 h 3.4 v 1.7 l 0 25.4 v 1.7 h -2.6 l -0.5 -0.7 l -14.7 -21 v 20.1 V 484.6 z" stroke-linecap="round" />
</g>
		<g transform="matrix(1 0 0 1 169.45 49.25)" id="Warstwa_1"  >
<path style="stroke: none; stroke-width: 1; stroke-dasharray: none; stroke-linecap: butt; stroke-dashoffset: 0; stroke-linejoin: miter; stroke-miterlimit: 4; fill: rgb(0,0,0); fill-rule: nonzero; opacity: 1;"  transform=" translate(-467.1, -470.2)" d="M 467.2 468.5 h 12.6 v 1.7 c 0 4.1 -1.3 7.6 -3.9 10.4 c -2.5 2.7 -5.4 4 -8.7 4 c -3.4 0 -6.3 -1.4 -8.9 -4 c -2.6 -2.8 -3.9 -6.3 -3.9 -10.4 c 0 -4.1 1.3 -7.5 3.9 -10.4 c 2.5 -2.7 5.4 -4 8.8 -4 c 1.9 0 3.8 0.5 5.7 1.4 c 2.4 1.2 4.1 2.8 5.1 4.8 l -3.1 1.5 c -0.4 -0.7 -0.9 -1.3 -1.6 -2 c -1.8 -1.6 -3.9 -2.4 -6.2 -2.4 c -2.4 0 -4.5 1 -6.3 2.8 c -2.1 2.2 -3.1 4.9 -3.1 8.2 c 0 2.8 0.8 5.3 2.4 7.4 c 1.9 2.4 4.2 3.6 7 3.6 c 2.5 0 4.7 -1.1 6.7 -3.1 c 1.8 -1.9 2.6 -4 2.6 -6.2 h -9.2 V 468.5 z" stroke-linecap="round" />
</g>
		<g transform="matrix(1 0 0 1 -171.65 91.65)" id="Warstwa_1"  >
<path style="stroke: none; stroke-width: 1; stroke-dasharray: none; stroke-linecap: butt; stroke-dashoffset: 0; stroke-linejoin: miter; stroke-miterlimit: 4; fill: rgb(0,0,0); fill-rule: nonzero; opacity: 1;"  transform=" translate(-126, -512.6)" d="M 115.4 512.6 l 0 -12.7 v -1.7 h 1.7 l 10.8 0 c 2.1 0 4.1 0.7 5.7 2 c 2 1.6 3 3.6 3 6.1 c 0 1.9 -0.7 3.6 -2 5.1 c -1.7 2 -4 2.9 -6.7 2.9 h -9.1 v 11 v 1.7 h -3.4 v -1.7 v -11 V 512.6 z M 127.9 510.9 c 1 0 2 -0.3 2.9 -0.8 c 1.6 -0.9 2.4 -2.2 2.4 -3.9 c 0 -1 -0.3 -1.9 -0.9 -2.7 c -1 -1.4 -2.5 -2 -4.4 -2 h -9.1 v 9.4 L 127.9 510.9 z" stroke-linecap="round" />
</g>
		<g transform="matrix(1 0 0 1 -123.55 91.65)" id="Warstwa_1"  >
<path style="stroke: none; stroke-width: 1; stroke-dasharray: none; stroke-linecap: butt; stroke-dashoffset: 0; stroke-linejoin: miter; stroke-miterlimit: 4; fill: rgb(0,0,0); fill-rule: nonzero; opacity: 1;"  transform=" translate(-174.1, -512.6)" d="M 164.2 527 h -3.7 l 1 -2.4 l 11 -25.4 l 0.5 -1 h 2.2 l 0.5 1 l 11 25.4 l 1 2.4 h -3.7 l -0.5 -1 l -9.5 -21.8 l -9.5 21.8 L 164.2 527 z" stroke-linecap="round" />
</g>
		<g transform="matrix(1 0 0 1 -72.5 91.65)" id="Warstwa_1"  >
<path style="stroke: none; stroke-width: 1; stroke-dasharray: none; stroke-linecap: butt; stroke-dashoffset: 0; stroke-linejoin: miter; stroke-miterlimit: 4; fill: rgb(0,0,0); fill-rule: nonzero; opacity: 1;"  transform=" translate(-225.15, -512.6)" d="M 235.3 524.8 l 0.7 2.2 h -3.6 l -0.3 -1.2 c -0.9 -3.1 -1.8 -5.4 -2.5 -7.1 c -0.9 -1.9 -2 -3.4 -3.4 -4.4 h -8.5 v 11 v 1.7 h -3.4 v -1.7 v -11 v -1.7 l 0 -12.7 v -1.7 h 1.7 l 10.7 0 c 2.2 0 4.1 0.7 5.8 2 c 2 1.6 3 3.6 3 6.1 c 0 0.9 -0.2 1.8 -0.5 2.7 c -0.8 2.1 -2.3 3.7 -4.5 4.6 C 232 515.5 233.7 519.2 235.3 524.8 z M 221.3 510.9 h 5.4 c 1 0 2 -0.3 2.9 -0.8 c 1.6 -0.9 2.4 -2.2 2.4 -3.9 c 0 -1 -0.3 -1.9 -0.9 -2.7 c -1 -1.4 -2.5 -2 -4.4 -2 h -9.1 v 9.4 L 221.3 510.9 L 221.3 510.9 z" stroke-linecap="round" />
</g>
		<g transform="matrix(1 0 0 1 -25.6 91.65)" id="Warstwa_1"  >
<path style="stroke: none; stroke-width: 1; stroke-dasharray: none; stroke-linecap: butt; stroke-dashoffset: 0; stroke-linejoin: miter; stroke-miterlimit: 4; fill: rgb(0,0,0); fill-rule: nonzero; opacity: 1;"  transform=" translate(-272.05, -512.6)" d="M 281.4 498.2 h 1.7 v 3.4 h -1.7 h -7.6 v 23.7 v 1.7 h -3.4 v -1.7 v -23.7 h -7.7 h -1.7 v -3.4 h 1.7 h 7.7 h 3.4 H 281.4 z" stroke-linecap="round" />
</g>
		<g transform="matrix(1 0 0 1 23.45 91.6)" id="Warstwa_1"  >
<path style="stroke: none; stroke-width: 1; stroke-dasharray: none; stroke-linecap: butt; stroke-dashoffset: 0; stroke-linejoin: miter; stroke-miterlimit: 4; fill: rgb(0,0,0); fill-rule: nonzero; opacity: 1;"  transform=" translate(-321.1, -512.55)" d="M 313.9 527 h -3.4 v -1.7 v -25.4 v -1.7 h 2.6 l 0.5 0.7 l 14.7 21 l 0 -20.1 v -1.7 h 3.4 v 1.7 l 0 25.4 v 1.7 H 329 l -0.5 -0.7 l -14.7 -21 v 20.1 V 527 z" stroke-linecap="round" />
</g>
		<g transform="matrix(1 0 0 1 74.95 91.65)" id="Warstwa_1"  >
<path style="stroke: none; stroke-width: 1; stroke-dasharray: none; stroke-linecap: butt; stroke-dashoffset: 0; stroke-linejoin: miter; stroke-miterlimit: 4; fill: rgb(0,0,0); fill-rule: nonzero; opacity: 1;"  transform=" translate(-372.6, -512.6)" d="M 382.8 498.2 v 3.4 h -1.7 h -15.3 v 9.3 h 10.7 h 1.7 v 3.4 h -1.7 h -10.7 v 9.3 h 15.3 h 1.7 v 3.4 h -1.7 h -17 h -1.7 v -1.7 v -11 v -3.4 v -11 v -1.7 h 1.7 h 17 H 382.8 z" stroke-linecap="round" />
</g>
		<g transform="matrix(1 0 0 1 125.1 91.65)" id="Warstwa_1"  >
<path style="stroke: none; stroke-width: 1; stroke-dasharray: none; stroke-linecap: butt; stroke-dashoffset: 0; stroke-linejoin: miter; stroke-miterlimit: 4; fill: rgb(0,0,0); fill-rule: nonzero; opacity: 1;"  transform=" translate(-422.75, -512.6)" d="M 432.9 524.8 l 0.7 2.2 H 430 l -0.3 -1.2 c -0.9 -3.1 -1.8 -5.4 -2.5 -7.1 c -0.9 -1.9 -2 -3.4 -3.4 -4.4 h -8.5 v 11 v 1.7 h -3.4 v -1.7 v -11 v -1.7 l 0 -12.7 v -1.7 h 1.7 l 10.7 0 c 2.2 0 4.1 0.7 5.8 2 c 2 1.6 3 3.6 3 6.1 c 0 0.9 -0.2 1.8 -0.5 2.7 c -0.8 2.1 -2.3 3.7 -4.5 4.6 C 429.6 515.5 431.3 519.2 432.9 524.8 z M 418.9 510.9 h 5.4 c 1 0 2 -0.3 2.9 -0.8 c 1.6 -0.9 2.4 -2.2 2.4 -3.9 c 0 -1 -0.3 -1.9 -0.9 -2.7 c -1 -1.4 -2.5 -2 -4.4 -2 h -9.1 v 9.4 L 418.9 510.9 L 418.9 510.9 z" stroke-linecap="round" />
</g>
		<g transform="matrix(1 0 0 1 171.95 91.7)" id="Warstwa_1"  >
<path style="stroke: none; stroke-width: 1; stroke-dasharray: none; stroke-linecap: butt; stroke-dashoffset: 0; stroke-linejoin: miter; stroke-miterlimit: 4; fill: rgb(0,0,0); fill-rule: nonzero; opacity: 1;"  transform=" translate(-469.6, -512.65)" d="M 475.7 506.2 c 0 -1 -0.4 -1.9 -1.1 -2.7 c -1.2 -1.3 -2.9 -2 -5 -2 c -1.2 0 -2.4 0.3 -3.4 0.8 c -1.7 0.9 -2.6 2.2 -2.6 3.8 c 0 0.3 0.1 0.6 0.2 0.9 c 0.5 0.9 2.1 1.9 4.8 3 c 3.4 1.3 5.4 2.1 6.1 2.5 c 3.4 1.7 5.1 3.9 5.1 6.4 c 0 1.8 -0.8 3.5 -2.3 5 c -2.1 2 -4.7 3.1 -7.9 3.1 c -2.8 0 -5.2 -0.8 -7.2 -2.3 c -2 -1.6 -3 -3.5 -3 -5.7 h 3.4 c 0 1 0.5 1.9 1.3 2.7 c 1.4 1.3 3.2 2 5.5 2 c 1.4 0 2.8 -0.3 4 -0.9 c 1.8 -0.9 2.8 -2.2 2.8 -3.7 c 0 -0.3 -0.1 -0.6 -0.3 -0.9 c -0.5 -1 -2.1 -2 -4.8 -3.1 c -3.3 -1.3 -5.3 -2.1 -6 -2.4 c -3.4 -1.7 -5.1 -3.8 -5.1 -6.3 c 0 -1.8 0.7 -3.5 2 -5 c 1.9 -2 4.3 -3.1 7.4 -3.1 c 2.4 0 4.6 0.7 6.4 2.1 c 2 1.6 3.1 3.6 3.1 5.9 H 475.7 z" stroke-linecap="round" />
</g>
</g>
</g>
</svg>